<svg width="24" height="19" viewBox="0 0 24 19" fill="none" xmlns="http://www.w3.org/2000/svg">
<path id="car" fill-rule="evenodd" clip-rule="evenodd" d="M5 8.48999V9.48999H13V2.48999H3V1.48999C3 0.93799 3.448 0.48999 4 0.48999H14C14.552 0.48999 15 0.93799 15 1.48999V3.48999H19.667C20.784 3.48999 21.267 4.06599 21.603 4.59699C22.197 5.53699 23.139 7.02899 23.712 7.97499C23.9 8.28699 24 8.64499 24 9.00999V13.49C24 14.579 23.257 15.49 22 15.49H21C21 17.146 19.656 18.49 18 18.49C16.344 18.49 15 17.146 15 15.49H11C11 17.146 9.656 18.49 8 18.49C6.344 18.49 5 17.146 5 15.49H4C3.448 15.49 3 15.042 3 14.49V8.48999H1V6.48999H8V8.48999H5ZM8 14.29C8.662 14.29 9.2 14.828 9.2 15.49C9.2 16.152 8.662 16.69 8 16.69C7.338 16.69 6.8 16.152 6.8 15.49C6.8 14.828 7.338 14.29 8 14.29ZM18 14.29C18.662 14.29 19.2 14.828 19.2 15.49C19.2 16.152 18.662 16.69 18 16.69C17.338 16.69 16.8 16.152 16.8 15.49C16.8 14.828 17.338 14.29 18 14.29ZM15 11.49H5V13.49H5.765C6.314 12.876 7.112 12.49 8 12.49C8.888 12.49 9.686 12.876 10.235 13.49H15.765C16.314 12.876 17.112 12.49 18 12.49C18.888 12.49 19.686 12.876 20.235 13.49H22V8.91499L20.289 5.98599C20.11 5.67899 19.781 5.48999 19.426 5.48999H15V11.49ZM16 6.48999V9.48999H21L19.573 6.99399C19.395 6.68199 19.064 6.48999 18.705 6.48999H16ZM0 3.48999H8V5.48999H0V3.48999Z" fill="black"/>
</svg>
