<svg width="14" height="17" viewBox="0 0 14 17" fill="none" xmlns="http://www.w3.org/2000/svg">
<path id="Vector" d="M12.4634 5.20671H9.79671V3.20671C9.79671 1.73404 8.60271 0.540039 7.13004 0.540039C5.65738 0.540039 4.46338 1.73404 4.46338 3.20671V5.20671H1.79671L0.463379 16.54H13.7967L12.4634 5.20671ZM5.13005 3.20671C5.13005 2.10404 6.02738 1.20671 7.13004 1.20671C8.23271 1.20671 9.13004 2.10404 9.13004 3.20671V5.20671H5.13005V3.20671ZM1.96271 15.2067L2.98205 6.54004H4.46338V7.54004C4.46338 7.72404 4.61271 7.87337 4.79671 7.87337C4.98071 7.87337 5.13005 7.72404 5.13005 7.54004V6.54004H9.13004V7.54004C9.13004 7.72404 9.27938 7.87337 9.46338 7.87337C9.64738 7.87337 9.79671 7.72404 9.79671 7.54004V6.54004H11.278L12.2974 15.2067H1.96271Z" fill="black"/>
</svg>
